<?xml version="1.0" standalone="no"?>
<!DOCTYPE svg PUBLIC "-//W3C//DTD SVG 20010904//EN"
 "http://www.w3.org/TR/2001/REC-SVG-20010904/DTD/svg10.dtd">
<svg version="1.0" xmlns="http://www.w3.org/2000/svg"
 width="260.000000pt" height="260.000000pt" viewBox="0 0 260.000000 260.000000"
 preserveAspectRatio="xMidYMid meet">
<metadata>
Created by potrace 1.11, written by Peter Selinger 2001-2013
</metadata>
<g transform="translate(0.000000,260.000000) scale(0.100000,-0.100000)"
fill="#000000" stroke="none">
<path d="M1245 2584 c20 -21 19 -27 -4 -15 -16 9 -18 8 -14 -9 3 -11 10 -17
17 -13 6 3 5 0 -2 -8 -11 -12 -14 -12 -22 1 -5 8 -10 11 -10 6 0 -5 8 -18 18
-29 9 -11 12 -17 5 -14 -6 4 -14 3 -18 -3 -3 -5 -1 -10 6 -10 7 0 9 -3 6 -7
-4 -3 -1 -13 6 -21 9 -13 9 -14 0 -8 -9 5 -13 1 -13 -11 0 -10 -7 -30 -16 -43
-14 -22 -12 -22 10 3 14 15 26 24 26 18 0 -5 -5 -13 -10 -16 -8 -5 -8 -11 0
-20 7 -9 6 -16 -7 -26 -16 -13 -17 -12 -4 4 7 9 9 17 3 17 -14 0 -23 -28 -12
-35 6 -4 14 -3 20 0 6 3 7 -1 4 -9 -3 -9 -9 -14 -13 -12 -4 3 -13 1 -21 -5
-11 -6 -12 -9 -2 -9 7 0 12 -8 10 -17 -2 -10 2 -18 9 -18 6 0 15 -4 20 -9 5
-5 3 -6 -5 -2 -9 6 -11 1 -8 -17 4 -22 2 -23 -19 -13 -14 6 -21 16 -17 26 6
16 4 15 -18 -14 -8 -11 -10 -17 -3 -13 6 4 15 2 19 -4 4 -8 3 -9 -4 -5 -7 4
-12 1 -12 -6 0 -10 -3 -9 -9 2 -6 8 -7 18 -5 22 3 4 -2 8 -12 8 -13 0 -14 3
-5 14 10 12 8 13 -8 9 -13 -3 -21 -1 -21 6 0 7 -5 9 -10 6 -6 -4 -8 -11 -5
-16 10 -15 -2 -10 -16 8 -10 11 -10 14 -1 9 7 -4 12 -2 12 4 0 6 -10 10 -22 8
-14 -2 -22 2 -21 10 2 6 -4 12 -13 12 -8 0 -12 5 -8 11 4 8 0 9 -15 4 -22 -7
-30 10 -8 18 6 2 0 4 -15 3 -17 -1 -23 -5 -18 -11 6 -7 2 -11 -10 -11 -10 0
-17 3 -14 7 2 4 -7 9 -20 11 -17 4 -23 1 -19 -9 3 -7 10 -10 16 -6 6 3 7 1 3
-6 -6 -9 -11 -9 -24 1 -13 11 -15 10 -9 -4 3 -10 1 -21 -6 -25 -17 -11 -55
-58 -39 -49 10 6 13 3 11 -10 -3 -26 11 -55 23 -48 5 3 1 12 -9 20 -12 9 -13
13 -5 14 8 0 10 5 6 13 -4 7 -3 9 2 4 5 -5 9 -14 9 -20 1 -7 7 -11 13 -9 10 2
10 -3 2 -17 -13 -25 -13 -31 1 -31 5 0 7 5 4 10 -3 6 1 10 9 10 19 0 21 -11 5
-27 -8 -8 -8 -13 0 -18 6 -3 10 -1 9 6 -5 21 20 21 41 0 23 -23 36 -28 25 -9
-4 7 -3 8 5 4 9 -6 9 -11 1 -21 -8 -9 -6 -14 5 -19 9 -3 13 -2 10 3 -3 5 -1
13 5 16 6 4 9 1 8 -7 -2 -7 4 -14 12 -14 8 -1 20 -3 25 -4 6 -1 14 -2 18 -1 5
1 6 -3 2 -9 -3 -5 -1 -10 5 -10 6 0 9 -4 6 -9 -4 -5 3 -7 14 -4 18 5 25 -6 22
-37 0 -3 7 -6 17 -6 10 0 17 7 16 16 -1 8 0 9 2 3 3 -7 9 -13 15 -13 6 0 5 -6
-2 -15 -11 -13 -10 -14 3 -9 9 3 24 -1 32 -10 19 -19 5 -22 -15 -3 -7 6 1 -7
19 -31 18 -23 29 -42 25 -41 -20 3 -26 -2 -15 -15 9 -10 7 -17 -6 -27 -16 -13
-17 -12 -4 4 7 9 9 17 3 17 -14 0 -23 -28 -12 -35 6 -4 14 -4 19 -1 5 4 7 -3
4 -14 -3 -11 -9 -20 -13 -20 -13 0 -20 -29 -9 -35 5 -4 8 -1 7 6 -2 6 4 14 12
16 13 4 13 3 0 -6 -8 -6 -11 -11 -6 -11 5 0 3 -7 -4 -15 -7 -8 -17 -12 -23 -8
-6 3 -7 1 -3 -5 5 -9 13 -9 29 -1 l22 12 -20 -23 c-11 -13 -15 -20 -8 -17 6 4
15 2 19 -4 4 -8 3 -9 -4 -5 -8 4 -12 0 -12 -11 0 -10 -7 -30 -16 -43 -14 -22
-12 -22 10 3 14 15 26 24 26 20 0 -5 -5 -14 -11 -20 -7 -7 -7 -13 -1 -17 12
-7 4 -46 -10 -46 -5 0 -4 9 2 20 7 14 7 20 0 20 -5 0 -10 -7 -10 -15 0 -8 -6
-15 -12 -16 -7 0 -3 -5 9 -11 12 -6 24 -17 27 -25 4 -9 2 -11 -6 -7 -8 5 -9 2
-5 -11 4 -9 2 -25 -5 -33 -11 -13 -10 -15 4 -9 12 4 15 2 11 -8 -3 -8 -9 -12
-14 -9 -5 3 -17 1 -26 -5 -11 -6 -25 -6 -38 0 -18 9 -19 9 -2 -4 9 -8 17 -18
17 -22 0 -4 -6 -2 -14 4 -7 6 -22 9 -32 5 -16 -5 -16 -4 -4 5 13 9 13 11 0 12
-8 1 -18 1 -22 0 -3 0 -5 10 -4 23 2 17 -1 23 -10 19 -8 -3 -11 -10 -7 -17 4
-6 -1 -5 -11 3 -9 8 -15 22 -13 32 3 11 -1 16 -12 14 -9 -2 -16 -4 -16 -6 0
-1 -10 -3 -22 -4 -19 -2 -21 0 -12 18 8 13 8 17 1 13 -6 -4 -15 2 -21 11 -8
14 -11 15 -11 3 -1 -13 -2 -12 -10 1 -6 10 -20 15 -34 14 -14 -2 -24 0 -23 5
1 4 -2 7 -6 7 -5 -1 -15 9 -22 23 -8 14 -14 19 -15 11 0 -10 -5 -8 -17 6 -10
11 -27 22 -38 26 -19 7 -19 7 -1 -7 18 -14 18 -15 -2 -13 -22 1 -23 17 -2 43
14 16 13 16 -7 6 -28 -15 -30 -15 -30 3 0 8 4 12 8 9 4 -2 11 1 15 7 4 8 3 9
-4 5 -7 -4 -12 -3 -12 3 0 6 -8 8 -17 5 -14 -5 -15 -4 -4 4 7 5 11 16 9 23 -3
8 1 20 8 27 13 13 8 46 -5 37 -4 -2 -8 2 -8 10 0 8 5 11 10 8 6 -4 8 1 4 11
-4 9 -3 15 1 12 4 -2 14 -1 22 5 11 6 5 8 -17 5 -18 -2 -30 1 -27 5 3 5 13 9
24 9 22 0 33 23 18 38 -8 8 -7 16 3 28 9 12 10 15 2 10 -8 -4 -13 -2 -13 4 0
7 -5 10 -11 8 -6 -2 -9 -8 -7 -13 2 -6 6 -9 10 -8 4 2 5 -3 2 -11 -3 -8 0 -17
5 -21 13 -7 5 -25 -10 -25 -6 0 -7 5 -4 10 4 6 0 21 -8 33 -17 26 -12 47 11
47 16 1 16 2 1 13 -14 10 -14 14 -3 25 11 10 11 18 2 38 -10 21 -9 27 3 35 8
5 9 9 4 9 -6 0 -17 -6 -24 -12 -11 -11 -13 -10 -8 4 3 9 -1 24 -9 35 -14 17
-14 16 -4 -4 6 -13 7 -23 3 -23 -14 0 -34 40 -26 53 5 9 3 9 -9 0 -8 -7 -18
-10 -22 -6 -4 4 -4 0 0 -10 3 -9 10 -17 15 -17 5 0 9 -5 9 -12 0 -6 -10 -2
-22 9 -29 26 -49 37 -47 26 3 -19 -2 -33 -12 -33 -5 0 -7 5 -4 10 10 16 -1 11
-16 -7 -8 -10 -9 -14 -2 -10 6 4 14 3 18 -3 3 -5 -2 -10 -12 -10 -15 0 -16 -2
-3 -10 13 -8 13 -10 -2 -10 -9 0 -19 6 -21 13 -4 9 -6 9 -6 -1 -1 -7 6 -15 15
-19 14 -5 13 -8 -7 -18 l-22 -13 21 -6 c12 -4 22 -12 22 -18 0 -5 -7 -7 -16
-4 -9 3 -12 2 -9 -5 4 -5 1 -18 -6 -27 -10 -12 -6 -11 10 3 l24 20 -12 -22
c-13 -26 -14 -36 -3 -29 5 3 9 -1 9 -9 0 -8 -4 -12 -8 -10 -4 3 -10 -2 -13
-11 -3 -8 -2 -13 3 -10 5 4 7 -12 4 -36 -5 -32 -3 -39 7 -33 9 5 11 4 6 -3 -4
-6 -21 -10 -37 -8 -22 3 -27 0 -20 -7 6 -6 11 -16 11 -21 0 -6 -5 -3 -11 7 -9
15 -13 16 -27 5 -10 -8 -13 -9 -9 -1 4 7 0 16 -10 22 -10 6 -13 11 -8 11 6 0
16 -5 23 -12 9 -9 12 -9 12 0 0 7 -5 12 -11 12 -5 0 -7 4 -4 10 4 6 -2 7 -17
1 -13 -4 -29 -6 -35 -4 -17 6 -17 40 0 46 9 4 9 6 0 6 -6 1 -15 -4 -18 -10 -5
-6 -12 -4 -22 8 -11 14 -14 14 -10 2 3 -9 -1 -16 -8 -16 -7 0 -12 8 -10 17 3
15 -6 18 -52 22 -7 1 -13 8 -13 15 0 8 5 11 12 7 7 -5 8 -3 3 6 -6 10 -13 8
-27 -10 l-19 -24 6 30 c5 22 4 25 -4 14 -10 -14 -16 -7 -12 13 1 5 -3 6 -9 2
-6 -3 -8 -11 -5 -16 4 -5 1 -9 -4 -9 -6 0 -11 -5 -11 -11 0 -8 5 -8 15 1 10 9
15 9 15 1 0 -12 -12 -15 -44 -11 -14 1 -18 -3 -14 -17 3 -12 0 -20 -8 -20 -7
0 -11 4 -8 8 2 4 0 10 -5 13 -14 9 -7 -19 9 -40 14 -17 13 -18 -2 -6 -9 8 -19
9 -22 4 -3 -6 1 -12 9 -16 9 -3 12 -12 8 -22 -5 -13 -3 -15 8 -9 11 6 12 5 2
-6 -17 -18 -17 -34 0 -20 11 8 13 6 13 -9 -1 -10 3 -19 8 -19 5 1 13 -5 18
-13 8 -10 9 -10 5 2 -2 8 -10 14 -16 12 -7 -1 -10 2 -6 8 4 7 12 7 26 0 11 -6
17 -14 15 -18 -3 -5 0 -14 6 -22 8 -12 9 -12 4 2 -3 10 -1 20 5 23 5 4 9 3 8
-2 -1 -4 0 -17 1 -28 2 -17 3 -17 10 5 l8 25 1 -24 c1 -18 5 -22 20 -18 14 3
18 1 14 -11 -5 -12 -1 -14 20 -10 22 4 25 3 17 -13 -7 -13 -6 -17 5 -15 8 1
18 6 22 11 4 4 2 5 -6 0 -10 -5 -12 -4 -7 4 11 17 26 3 19 -16 -5 -12 -2 -15
10 -10 9 3 19 1 23 -5 5 -7 2 -8 -6 -3 -8 5 -11 3 -8 -6 3 -8 10 -13 16 -12
13 3 10 -21 -6 -39 -6 -8 -9 -18 -5 -21 3 -4 4 -7 0 -7 -3 0 -13 7 -21 16 -9
9 -16 11 -16 4 0 -6 -4 -9 -9 -5 -5 3 -12 1 -16 -5 -4 -6 -11 -8 -16 -5 -5 4
-9 -1 -9 -9 0 -9 -4 -16 -10 -16 -5 0 -10 -5 -10 -11 0 -5 5 -7 12 -3 6 4 8 3
5 -4 -4 -5 -16 -8 -27 -5 -12 3 -20 2 -19 -3 4 -21 -2 -24 -24 -13 -20 11 -21
11 -9 -4 12 -14 11 -16 -7 -12 -13 2 -18 -1 -15 -10 3 -7 0 -16 -5 -20 -6 -3
-9 -10 -6 -15 3 -4 -1 -13 -8 -19 -10 -8 -14 -7 -14 4 0 8 5 11 11 8 6 -3 8
-3 4 2 -4 4 -2 15 4 24 10 12 7 12 -8 -2 -11 -9 -25 -14 -29 -10 -5 5 -4 1 3
-8 8 -11 9 -18 1 -26 -9 -9 -5 -11 13 -9 21 3 24 0 20 -18 -3 -11 -7 -15 -10
-8 -2 6 -8 12 -14 12 -7 0 -6 -5 2 -14 6 -8 18 -12 26 -9 8 3 14 0 14 -7 0 -6
4 -9 8 -6 5 3 9 -2 9 -10 0 -10 -4 -11 -11 -4 -5 5 -15 10 -21 10 -5 0 -2 -7
8 -15 11 -7 25 -11 33 -8 8 3 14 0 14 -6 0 -6 -5 -11 -11 -11 -5 0 -7 -5 -3
-11 5 -8 9 -8 14 1 4 7 13 9 19 6 14 -9 10 16 -4 26 -6 5 -5 8 2 8 11 0 35
-32 30 -41 -1 -2 0 -3 3 -1 3 2 5 9 5 15 0 7 8 11 17 11 11 -1 15 5 13 17 -4
22 30 27 39 7 3 -7 3 -3 0 9 -4 18 -2 22 11 17 11 -5 16 -2 15 7 -1 8 -2 21
-1 29 1 13 3 13 10 1 5 -8 7 -21 4 -30 -4 -11 0 -9 10 4 9 11 17 25 17 30 0 6
9 11 20 12 13 1 18 -2 14 -9 -5 -7 -2 -8 5 -4 7 5 10 15 7 23 -3 8 -2 12 3 9
4 -3 18 5 31 19 13 14 28 21 38 18 11 -5 13 -3 7 8 -7 12 -6 12 7 1 13 -10 18
-10 24 -1 4 7 3 9 -3 6 -5 -3 -10 0 -10 7 0 8 6 12 14 9 7 -3 13 -10 13 -16 0
-6 3 -7 7 -4 3 4 12 2 20 -5 7 -6 16 -8 20 -4 3 3 1 6 -6 6 -7 0 -9 5 -5 12 4
6 3 8 -4 4 -6 -3 -13 -2 -16 3 -5 7 22 8 32 1 1 -2 7 -3 12 -4 15 -2 30 -28
23 -40 -3 -5 -1 -6 5 -2 7 4 12 2 12 -5 0 -8 10 -9 31 -5 l31 6 -23 -21 c-13
-11 -17 -17 -9 -13 20 11 61 13 54 3 -2 -4 0 -10 6 -14 5 -3 10 0 10 7 0 9 3
9 10 -2 5 -8 7 -24 4 -35 -4 -15 -3 -17 5 -6 12 18 41 23 38 8 -1 -7 4 -11 11
-10 6 2 12 -2 12 -7 0 -15 -11 -12 -32 7 -17 15 -18 15 -13 1 8 -20 33 -31 48
-21 18 11 38 12 31 2 -3 -5 -10 -6 -16 -3 -7 5 -8 2 -4 -5 5 -7 15 -10 23 -7
11 5 13 1 8 -15 -5 -14 -3 -19 3 -15 6 3 18 -1 26 -10 9 -8 16 -11 16 -5 0 6
7 11 15 11 8 0 15 -5 15 -11 0 -5 -4 -7 -10 -4 -5 3 -10 1 -10 -5 0 -6 8 -9
18 -6 24 8 45 -8 49 -36 2 -13 0 -18 -4 -12 -17 23 -40 11 -39 -20 1 -25 -3
-30 -18 -28 -13 2 -17 -1 -13 -11 6 -15 -27 -17 -40 -2 -5 4 -3 5 4 1 6 -3 14
-2 17 3 5 8 -15 8 -34 1 -3 -1 -8 -2 -12 -1 -5 0 -7 -5 -5 -12 1 -6 -6 -11
-15 -11 -10 1 -14 -4 -11 -13 4 -11 10 -10 29 8 32 30 31 17 0 -15 -16 -15
-27 -20 -29 -13 -3 9 -9 8 -18 -2 -9 -8 -9 -11 -2 -7 9 5 11 2 7 -9 -6 -14 -8
-14 -19 1 -12 18 -36 12 -34 -9 0 -9 2 -9 6 1 2 6 9 12 15 12 7 0 7 -5 -1 -13
-6 -8 -7 -18 -3 -23 4 -5 -3 -1 -15 9 -14 12 -23 15 -28 7 -3 -5 -10 -8 -14
-6 -4 3 -8 -1 -8 -9 0 -12 4 -12 21 2 15 14 18 14 8 2 -6 -9 -8 -20 -4 -24 4
-5 1 -5 -5 -1 -8 4 -13 2 -13 -5 0 -7 -7 -4 -15 7 -14 18 -14 18 -15 0 0 -16
-2 -17 -17 -5 -15 13 -15 12 -5 -8 14 -25 16 -45 4 -25 -5 7 -22 15 -38 18
-21 3 -25 2 -14 -5 12 -9 12 -11 -3 -17 -9 -3 -17 -11 -17 -17 0 -6 11 -1 23
11 18 17 24 19 24 8 0 -8 -4 -13 -8 -10 -5 3 -14 -4 -21 -15 -11 -18 -13 -18
-25 -3 -9 13 -12 14 -13 3 0 -11 -4 -10 -19 3 -14 13 -21 14 -27 5 -4 -7 -3
-10 4 -5 6 4 16 -4 22 -16 11 -22 11 -22 -5 -3 -9 11 -19 20 -23 20 -4 0 -7 7
-7 15 0 10 -9 15 -27 14 -16 -1 -25 3 -21 9 4 6 -4 7 -21 3 -22 -5 -26 -3 -26
14 0 12 -4 19 -9 15 -5 -3 -12 3 -14 12 -3 13 -5 11 -7 -7 -1 -21 -4 -19 -16
15 -7 22 -12 30 -10 17 2 -12 0 -20 -4 -17 -5 3 -11 -1 -14 -7 -3 -7 -3 -1 -1
14 4 30 -9 46 -21 27 -5 -8 -3 -9 6 -4 9 5 11 4 6 -4 -6 -8 -12 -9 -20 -2 -7
6 -17 7 -21 3 -5 -4 -5 -1 -1 6 4 6 3 12 -1 12 -5 0 -15 -6 -22 -12 -10 -9
-12 -9 -7 -1 3 6 -2 17 -11 23 -16 10 -16 11 -1 6 12 -3 15 -1 11 10 -3 8 -8
13 -11 10 -9 -10 -43 15 -36 26 5 7 2 8 -5 4 -9 -6 -8 -13 6 -28 18 -20 18
-21 -4 -9 -12 6 -25 16 -28 22 -8 12 -35 -7 -35 -25 0 -6 5 -4 10 4 5 8 10 11
10 5 -1 -5 -7 -19 -15 -29 -11 -14 -15 -16 -15 -5 -1 9 -8 6 -21 -10 -15 -19
-17 -26 -7 -32 7 -5 9 -9 4 -9 -5 0 -3 -6 3 -14 10 -11 8 -17 -6 -25 -24 -14
-7 -14 19 0 13 7 18 7 14 1 -3 -6 -2 -14 4 -17 8 -5 8 -11 0 -20 -8 -9 -6 -14
5 -19 9 -3 13 -11 9 -17 -4 -8 -3 -9 5 -5 6 4 9 12 6 17 -4 5 1 9 10 9 10 0
13 -5 9 -12 -5 -8 -2 -9 9 -5 9 3 19 1 23 -5 5 -7 2 -8 -6 -3 -9 5 -11 4 -6
-4 6 -9 11 -9 24 1 9 7 13 8 9 2 -3 -6 5 -22 20 -35 14 -13 23 -18 19 -11 -4
6 -2 12 3 12 6 0 11 -5 11 -10 0 -6 3 -9 8 -9 19 3 33 -2 27 -11 -3 -5 1 -10
9 -10 9 0 16 -4 16 -9 0 -4 -12 -7 -26 -5 -24 2 -24 1 -11 -20 13 -20 13 -22
-4 -23 -13 -1 -17 2 -12 10 5 9 2 8 -9 0 -8 -7 -18 -10 -22 -6 -4 4 -4 0 0
-10 3 -9 11 -14 17 -10 6 3 7 1 3 -6 -6 -9 -11 -9 -24 1 -12 10 -14 10 -8 1 4
-8 2 -13 -4 -13 -6 0 -8 -5 -5 -10 4 -6 11 -7 17 -4 7 5 8 2 3 -6 -6 -10 -12
-8 -27 9 -13 17 -18 19 -18 8 0 -9 -5 -19 -12 -23 -8 -5 -9 -2 -5 10 4 10 3
15 -3 11 -6 -3 -10 -14 -10 -23 -1 -16 -2 -15 -14 1 -12 16 -14 16 -20 2 -3
-9 -2 -14 3 -11 5 3 12 -1 15 -10 9 -24 7 -31 -4 -14 -9 13 -10 13 -10 0 -1
-12 -3 -11 -11 3 -5 9 -15 17 -22 17 -8 0 -8 -3 -2 -8 6 -4 11 -16 13 -27 2
-16 1 -17 -7 -5 -6 8 -11 11 -11 6 0 -5 -8 -2 -17 5 -12 10 -15 10 -9 1 4 -7
-1 -27 -13 -46 -24 -38 -26 -50 -9 -40 7 4 10 4 6 -1 -4 -4 -3 -17 3 -29 10
-20 10 -20 -5 -2 -9 11 -16 15 -16 9 0 -20 29 -42 50 -38 24 5 25 1 3 -16 -9
-8 -14 -9 -10 -2 8 13 -18 12 -30 -2 -4 -4 -3 -5 4 -1 6 3 14 2 18 -4 4 -7 12
-7 25 0 31 16 37 11 11 -10 -13 -11 -18 -20 -13 -20 6 0 14 4 17 10 3 5 11 10
16 10 6 0 7 -4 4 -10 -3 -5 -2 -10 3 -10 6 0 13 7 16 16 3 9 11 12 18 8 9 -5
8 -2 -1 9 -8 10 -11 20 -7 24 3 3 6 1 6 -5 0 -7 11 -11 24 -10 17 2 22 6 16
13 -7 8 -3 11 13 11 12 -1 22 4 22 11 0 19 12 24 12 6 0 -10 -5 -25 -11 -33
-10 -13 -9 -13 6 -1 10 7 18 21 18 31 0 10 8 24 17 31 16 12 17 12 6 -1 -10
-13 -9 -16 6 -16 13 0 16 6 13 23 -3 13 1 23 7 23 7 0 9 -4 6 -10 -3 -5 1 -10
10 -10 11 0 15 5 11 15 -3 8 -2 14 2 13 4 -1 19 2 35 7 24 6 26 10 15 24 -11
14 -11 14 3 4 9 -7 19 -9 23 -5 4 4 6 0 4 -8 -2 -9 3 -14 12 -12 8 2 12 0 8
-4 -4 -4 -2 -14 5 -22 7 -10 8 -13 1 -9 -8 4 -12 -3 -11 -21 0 -15 -4 -36 -8
-46 -5 -12 -5 -17 2 -13 5 3 10 -1 10 -9 0 -8 -6 -13 -13 -10 -8 3 -11 0 -7
-9 3 -8 9 -12 14 -9 5 3 6 -2 3 -10 -3 -9 -10 -14 -14 -11 -5 3 -12 0 -16 -7
-4 -7 -4 -10 1 -6 4 4 14 1 21 -7 18 -18 18 -29 0 -22 -10 4 -13 1 -9 -8 3 -8
10 -12 16 -8 5 3 7 1 3 -5 -3 -5 0 -13 6 -16 7 -3 2 -4 -12 -1 -14 3 -19 2
-12 -1 6 -3 9 -11 6 -16 -4 -7 -2 -8 4 -4 7 4 12 2 12 -4 0 -6 4 -9 9 -6 11 7
23 -22 14 -36 -4 -7 -1 -8 6 -4 7 5 10 15 6 23 -4 13 -3 14 10 3 12 -10 15
-10 15 1 0 10 3 10 8 3 4 -6 15 -10 25 -8 9 1 15 -1 12 -6 -3 -4 1 -10 9 -13
10 -4 12 0 9 14 -3 11 0 19 6 19 7 0 9 5 5 13 -5 7 -2 7 10 -2 15 -12 17 -12
14 0 -2 8 -7 17 -13 21 -6 5 -6 8 2 8 13 0 12 17 -2 40 -8 13 -7 13 9 1 15
-13 17 -12 12 12 -3 20 0 28 15 32 21 7 27 27 7 23 -7 -2 -11 4 -9 12 10 46 8
59 -9 50 -12 -6 -17 -5 -17 5 0 8 4 12 8 9 4 -2 7 5 6 16 -1 12 -6 19 -14 16
-20 -8 -15 2 6 14 17 9 19 7 16 -10 -2 -11 1 -23 7 -26 7 -4 8 -2 4 4 -4 7 -1
12 6 12 9 0 9 3 -2 10 -8 5 -11 10 -6 10 5 0 1 9 -9 20 -20 22 -7 28 14 8 11
-10 11 -8 0 9 -9 16 -20 21 -34 18 -11 -3 -14 -2 -7 1 6 3 12 12 12 20 0 9 -5
12 -11 9 -6 -4 -5 2 3 14 7 12 18 21 25 21 6 0 15 5 19 11 4 8 0 9 -15 4 -16
-5 -20 -3 -15 8 3 9 16 14 29 13 17 -2 22 1 18 11 -4 11 1 14 17 11 14 -2 25
3 27 12 4 12 3 12 -5 2 -7 -11 -10 -11 -15 2 -4 9 -1 15 6 13 7 -1 11 3 10 10
-2 7 4 10 12 7 8 -4 12 -11 9 -16 -4 -6 3 -5 15 1 11 7 21 19 21 28 0 11 6 14
21 10 16 -4 18 -3 8 9 -15 19 -5 18 14 -1 13 -13 16 -13 27 1 11 12 10 13 -3
9 -8 -4 -18 0 -23 7 -4 7 -4 10 1 6 11 -10 47 11 39 23 -4 8 0 7 14 0 15 -8
23 -7 31 3 6 7 8 16 4 20 -4 4 0 4 10 0 9 -3 14 -11 10 -17 -3 -6 -1 -7 6 -3
9 6 9 11 0 22 -13 16 2 19 18 3 8 -8 13 -7 18 2 5 8 4 10 -3 5 -7 -4 -12 -1
-12 6 0 22 38 40 60 28 13 -7 21 -7 25 0 4 6 1 9 -6 8 -6 -2 -14 4 -16 12 -4
12 -3 12 5 2 13 -20 17 -19 43 3 13 11 21 16 16 11 -4 -5 0 -20 9 -33 13 -20
13 -27 2 -41 -7 -9 -8 -13 -2 -9 7 4 14 1 17 -7 4 -10 -1 -12 -16 -9 -21 5
-21 5 -3 -9 19 -15 19 -16 -2 -54 l-23 -39 26 28 c14 15 25 24 25 18 0 -5 -5
-13 -10 -16 -8 -5 -8 -11 0 -20 7 -9 6 -16 -7 -26 -16 -13 -17 -12 -4 3 7 10
9 18 3 18 -14 0 -23 -28 -12 -35 6 -4 14 -4 18 -1 6 4 8 -44 2 -51 -2 -2 -3
-6 -4 -10 -3 -19 -18 -33 -28 -27 -7 4 -8 2 -4 -4 5 -9 13 -9 29 -1 l22 12
-20 -23 c-11 -13 -15 -20 -8 -17 6 4 15 2 19 -4 4 -8 3 -9 -4 -5 -7 4 -12 1
-12 -8 0 -8 5 -18 10 -21 8 -5 8 -11 0 -20 -8 -10 -8 -15 0 -20 8 -5 8 -11 1
-19 -6 -7 -7 -17 -3 -21 4 -5 -1 -5 -11 -2 -17 6 -17 5 -2 -15 8 -13 15 -27
15 -33 0 -5 -5 -2 -11 8 -6 9 -15 15 -20 11 -6 -4 -6 -11 2 -20 9 -11 8 -14
-2 -14 -11 0 -11 -3 1 -11 13 -9 13 -10 0 -6 -8 2 -15 9 -15 14 0 6 -4 15 -8
20 -5 4 -8 4 -7 -2 5 -22 -1 -36 -12 -29 -8 5 -9 2 -5 -9 4 -10 2 -16 -6 -14
-7 1 -10 -5 -9 -13 2 -8 0 -12 -4 -8 -4 4 -14 2 -22 -4 -18 -16 -40 -19 -48
-7 -3 5 -10 7 -15 3 -6 -3 -5 -12 3 -22 12 -14 10 -14 -11 -3 -16 9 -21 10
-16 1 4 -7 -1 -14 -15 -17 -14 -4 -19 -11 -15 -22 3 -8 3 -12 -1 -8 -4 4 -16
0 -26 -10 -10 -9 -18 -12 -18 -7 0 5 -5 2 -11 -6 -9 -13 -10 -13 -6 0 2 8 10
14 16 12 7 -1 10 2 6 8 -4 6 -1 9 6 8 6 -2 14 4 16 12 4 13 3 13 -6 0 -6 -8
-11 -11 -11 -6 0 5 -8 2 -18 -7 -10 -10 -22 -14 -26 -10 -4 4 -4 0 0 -10 7
-20 -6 -22 -26 -5 -8 7 -6 2 5 -12 11 -14 16 -22 11 -18 -5 4 -15 1 -22 -7 -8
-8 -22 -12 -32 -9 -14 5 -14 4 -3 -4 8 -6 21 -8 30 -5 10 3 12 2 4 -4 -21 -15
-20 -84 2 -106 8 -8 12 -17 10 -21 -3 -3 1 -2 7 4 14 12 31 13 24 2 -3 -5 2
-9 10 -9 9 0 13 6 10 14 -3 8 -1 11 5 8 5 -4 16 -2 24 5 9 7 15 8 20 0 10 -16
28 -12 21 6 -4 10 -2 13 6 8 8 -5 9 -2 5 10 -6 14 -3 15 14 5 17 -9 21 -7 26
10 3 12 9 22 14 22 19 3 25 6 59 27 39 24 50 27 50 11 0 -5 -5 -7 -12 -3 -7 4
-8 3 -4 -5 5 -8 12 -9 20 -2 13 11 45 -3 33 -15 -4 -4 -1 -14 6 -22 8 -10 8
-13 1 -9 -7 4 -15 0 -18 -9 -4 -11 -2 -15 8 -11 10 4 13 1 10 -8 -3 -7 -14
-12 -25 -10 -11 2 -17 0 -14 -6 4 -5 11 -7 16 -4 5 4 9 1 9 -5 0 -6 5 -8 13
-4 8 5 7 2 -2 -10 -10 -12 -11 -20 -4 -27 12 -12 5 -49 -9 -49 -5 0 -4 9 2 20
7 14 7 20 0 20 -5 0 -10 -7 -10 -15 0 -8 -6 -15 -12 -15 -7 -1 -2 -7 12 -15
22 -13 21 -20 -3 -16 -5 1 -6 -3 -2 -9 3 -6 10 -8 15 -5 5 3 12 1 15 -5 4 -6
1 -9 -6 -8 -6 2 -14 -3 -16 -9 -3 -8 3 -13 14 -14 16 0 16 -1 -2 -9 -15 -6
-16 -9 -4 -9 9 -1 21 -13 27 -27 7 -14 16 -23 21 -19 5 3 13 0 17 -6 4 -8 3
-9 -4 -5 -7 4 -12 3 -12 -3 0 -5 6 -12 13 -14 8 -4 8 -6 0 -6 -6 -1 -21 15
-33 34 -12 19 -26 33 -31 29 -5 -3 -9 -7 -9 -10 0 -3 5 -2 10 1 9 6 14 -8 11
-28 -1 -5 3 -6 9 -2 5 3 10 1 10 -4 0 -6 -5 -11 -12 -11 -6 0 -8 -3 -4 -7 10
-10 146 -11 140 -2 -2 4 -1 9 3 12 5 2 3 2 -4 1 -18 -4 -23 23 -7 37 8 7 13
18 10 26 -4 9 -1 11 6 7 8 -5 9 -2 5 10 -4 10 -3 15 3 11 6 -3 10 -1 10 5 0 6
4 8 10 5 6 -4 7 1 3 11 -4 12 -8 14 -11 5 -3 -8 -8 -7 -17 6 -15 20 -9 43 10
43 19 0 28 17 14 26 -7 4 -9 3 -6 -2 3 -6 -3 -10 -13 -11 -18 -2 -18 -1 -2 16
9 10 20 16 24 14 3 -1 4 6 1 17 -3 11 -10 20 -15 20 -5 0 -6 -6 -2 -12 4 -7 3
-9 -1 -5 -15 14 -15 39 1 33 8 -3 14 -1 14 5 0 6 5 7 10 4 16 -10 11 1 -7 16
-9 8 -14 9 -10 3 3 -6 0 -11 -8 -11 -10 0 -12 4 -5 12 6 7 5 16 -3 25 -10 10
-9 11 2 5 11 -6 13 -3 9 12 -4 16 -1 19 19 17 14 -1 32 -9 41 -17 10 -8 25
-13 35 -12 9 2 17 -3 17 -10 0 -7 7 -16 16 -19 14 -5 15 -4 5 8 -9 11 -9 16 1
22 7 4 10 4 6 -1 -4 -4 -1 -14 7 -21 17 -17 29 -18 19 -1 -4 6 6 0 23 -16 16
-15 33 -24 38 -20 4 5 5 2 1 -5 -6 -10 -11 -10 -22 -1 -8 7 -14 7 -14 1 0 -11
25 -24 52 -27 15 -1 15 1 5 14 -10 12 -9 13 1 7 8 -5 26 -9 42 -10 24 -2 27 1
19 15 -7 14 -5 16 14 11 20 -5 21 -4 7 13 -14 17 -14 18 7 7 19 -11 21 -10 18
8 -2 11 1 20 7 20 7 0 3 7 -8 16 -10 8 -14 13 -8 10 5 -2 10 6 10 19 0 13 -4
21 -8 19 -5 -3 -11 2 -14 10 -3 9 -10 16 -16 16 -5 0 -7 -4 -4 -8 3 -5 -1 -9
-9 -9 -13 0 -12 4 2 19 9 10 13 21 10 25 -4 3 -7 2 -7 -4 0 -6 -7 -14 -16 -17
-14 -5 -15 -4 -5 8 9 11 9 16 0 22 -7 4 -9 3 -6 -3 4 -6 -1 -13 -11 -15 -13
-4 -18 1 -19 15 -3 27 -11 33 -26 17 -6 -7 -7 -10 -1 -7 6 3 11 0 11 -8 0 -11
-4 -12 -14 -4 -7 6 -10 15 -7 20 3 5 -2 9 -10 9 -14 0 -20 12 -17 33 0 4 -4 7
-10 7 -6 0 -9 -7 -6 -15 4 -8 1 -17 -5 -21 -7 -4 -8 -3 -4 4 4 7 2 12 -4 12
-7 0 -10 7 -6 17 5 15 4 15 -9 -1 -8 -11 -16 -15 -16 -8 -1 7 -3 17 -4 22 -1
6 -3 16 -4 23 -1 8 -4 9 -9 1 -8 -13 -42 -26 -40 -16 1 4 -2 15 -6 25 -9 19
-36 23 -36 5 0 -6 -3 -8 -7 -4 -5 4 1 14 12 23 19 14 19 15 -5 12 -14 -2 -26
1 -28 6 -2 6 -11 19 -20 30 -11 13 -7 11 11 -4 15 -14 30 -21 34 -18 3 4 1 7
-5 7 -7 0 -12 7 -12 16 0 9 5 13 13 9 6 -4 0 4 -14 17 -21 20 -23 26 -12 37
11 10 11 15 -2 27 -19 20 -19 30 1 38 14 5 15 4 5 -8 -9 -10 -9 -15 1 -19 8
-3 14 5 14 20 2 21 -2 24 -20 19 -18 -4 -19 -3 -6 7 18 14 27 77 11 77 -6 0
-11 5 -11 11 0 5 4 8 9 4 5 -3 13 -1 16 5 4 6 1 9 -7 8 -7 -2 -13 7 -15 22 -1
14 1 17 3 8 6 -21 20 -23 30 -6 4 7 3 8 -4 4 -7 -4 -12 -1 -12 8 0 9 -4 16
-10 16 -5 0 -10 5 -10 10 0 6 5 9 12 8 11 -3 13 9 9 43 0 5 -6 7 -11 4 -5 -3
-10 -1 -10 4 0 6 5 11 10 11 6 0 10 6 9 13 -3 27 2 48 10 42 5 -3 12 -1 16 4
3 6 -5 8 -20 5 -27 -5 -29 -1 -15 31 7 17 9 17 9 3 1 -11 9 -18 22 -18 13 0
18 4 14 12 -4 7 3 2 14 -11 19 -21 21 -21 21 -5 0 16 2 16 9 4 6 -8 7 -19 4
-25 -4 -5 -3 -7 2 -3 5 5 14 -1 22 -12 11 -15 19 -17 38 -10 19 7 23 6 18 -5
-3 -8 -10 -12 -17 -8 -6 3 -7 2 -3 -2 12 -14 60 -18 52 -5 -3 6 -11 7 -17 4
-7 -4 -8 -2 -4 5 11 17 37 -6 29 -25 -3 -9 1 -14 12 -14 9 0 14 4 11 8 -3 5 1
9 9 9 8 0 12 -4 9 -8 -6 -11 18 -49 31 -49 6 0 16 -5 23 -12 14 -14 44 -20 36
-7 -3 5 -9 7 -14 4 -5 -3 -15 4 -23 15 -7 11 -17 17 -22 12 -5 -4 -5 -1 0 7 7
12 10 11 21 -3 6 -9 21 -18 32 -19 14 -1 19 -7 17 -24 -1 -12 1 -20 6 -18 4 3
10 -3 12 -12 4 -17 5 -17 6 0 0 9 5 17 11 17 9 0 27 -26 29 -42 1 -11 11 -11
19 -2 4 4 0 3 -8 -1 -13 -8 -13 -7 -1 8 14 18 26 24 17 8 -3 -5 0 -14 8 -20 8
-7 13 -20 11 -29 -2 -9 -4 -20 -4 -24 -1 -4 -8 -14 -17 -22 -8 -9 -11 -16 -5
-16 5 0 16 9 24 20 13 18 15 19 21 5 3 -9 2 -13 -4 -10 -5 3 -15 -5 -21 -19
-7 -14 -16 -23 -22 -19 -6 3 -7 1 -3 -5 4 -7 14 -12 22 -12 8 0 13 4 10 8 -2
4 -1 14 3 21 6 10 10 9 14 -3 4 -10 -1 -21 -13 -28 -14 -9 -16 -16 -9 -29 6
-11 5 -20 -1 -24 -16 -10 -12 -25 8 -25 14 0 14 -2 3 -9 -8 -5 -21 -7 -30 -4
-14 4 -14 3 -1 -6 13 -9 12 -12 -5 -26 -11 -9 -14 -14 -7 -10 22 11 33 -4 20
-28 -11 -21 -10 -21 7 -7 17 14 18 13 12 -2 -3 -9 -3 -19 1 -21 4 -2 2 -3 -3
-2 -6 2 -16 -4 -23 -11 -10 -12 -9 -13 10 -11 16 1 23 -3 23 -15 0 -9 4 -20 8
-24 4 -4 7 -15 7 -25 0 -18 26 -33 41 -23 5 3 9 1 9 -4 0 -18 -13 -21 -34 -7
-25 18 -36 19 -36 3 0 -6 3 -8 7 -5 3 4 17 0 29 -8 15 -9 25 -11 29 -5 9 14
27 1 19 -13 -3 -7 2 -3 11 8 9 11 21 19 26 17 6 -1 7 3 4 9 -5 8 -10 8 -18 0
-15 -15 -24 -14 -24 2 0 9 10 13 26 11 14 -1 32 1 41 6 10 7 11 9 2 10 -7 0
-10 5 -7 10 4 6 11 8 16 5 5 -3 6 1 3 9 -3 9 -11 13 -17 9 -6 -3 -7 -1 -3 6 6
9 11 9 21 1 11 -9 12 -7 8 9 -3 12 -10 18 -17 14 -6 -3 -8 -3 -4 2 4 4 3 14
-3 22 -9 10 -8 13 1 13 9 0 9 4 -1 17 -10 11 -10 14 -1 9 7 -4 12 -2 12 7 0 8
10 22 23 31 21 16 21 16 0 6 -15 -7 -22 -7 -25 2 -6 18 3 58 13 58 5 0 6 -7 3
-15 -4 -8 -2 -15 4 -15 6 0 9 7 8 16 -3 18 -26 35 -38 28 -4 -3 -8 -1 -8 5 0
14 45 7 66 -10 10 -8 15 -9 11 -2 -9 15 10 27 26 16 7 -5 24 -9 39 -8 15 0 25
-2 22 -6 -2 -4 5 -10 16 -14 11 -3 20 -11 20 -16 0 -13 -18 -11 -23 4 -4 7 -6
8 -6 1 -1 -7 10 -19 24 -28 14 -9 25 -14 25 -10 0 4 8 0 17 -7 11 -10 14 -10
9 -1 -10 17 0 15 23 -5 11 -9 17 -21 14 -27 -4 -6 1 -5 10 3 19 15 23 26 5 15
-7 -4 -8 -3 -4 5 11 18 28 1 22 -23 -5 -20 -4 -20 9 -3 7 11 11 26 8 35 -4 14
-3 14 5 3 6 -8 9 -23 7 -33 -2 -10 0 -16 6 -13 5 4 7 11 4 16 -6 8 8 13 27 10
4 0 5 6 2 14 -4 8 -1 15 5 15 6 0 11 -4 11 -10 0 -5 5 -10 11 -10 8 0 7 5 -2
16 -15 19 -21 47 -8 38 5 -3 7 -10 4 -15 -4 -5 -2 -9 3 -9 6 0 13 7 16 16 3 8
2 13 -3 10 -5 -3 -11 1 -15 9 -3 8 0 17 6 21 7 5 8 2 3 -5 -6 -10 -3 -11 12
-2 11 6 24 7 28 3 5 -4 5 -2 1 5 -4 7 -13 10 -21 6 -8 -3 -15 0 -15 7 0 6 -5
8 -10 5 -6 -4 -10 -3 -9 2 4 25 -4 41 -27 51 -14 7 -22 17 -19 22 3 6 1 10 -4
10 -6 0 -11 -7 -11 -15 0 -8 4 -15 8 -15 5 0 17 -7 28 -15 17 -14 15 -14 -13
0 -18 8 -33 20 -33 26 0 6 -7 9 -15 5 -8 -3 -15 -1 -15 4 0 5 8 11 18 13 10 3
6 5 -10 6 -16 0 -28 7 -28 14 0 8 -4 7 -10 -3 -8 -12 -10 -11 -10 8 0 14 -6
22 -17 22 -15 0 -16 -2 -3 -10 8 -5 10 -10 4 -10 -6 0 -17 7 -24 15 -7 8 -17
12 -24 8 -7 -4 -6 -1 1 9 11 12 9 18 -9 34 -12 10 -18 14 -15 8 8 -13 -20 -40
-30 -30 -3 3 -1 6 5 6 18 0 14 31 -5 46 -16 13 -15 13 9 4 22 -7 26 -6 22 5
-3 8 -9 13 -12 12 -4 -1 -8 1 -9 6 -3 6 1 9 10 6 1 0 14 -2 29 -3 21 -1 24 1
16 11 -8 10 -7 12 6 7 9 -3 22 -1 30 5 7 6 17 7 21 3 5 -4 5 -2 2 4 -9 15 48
55 60 43 13 -13 32 11 35 43 1 17 7 24 15 21 9 -4 11 0 6 13 -4 10 -2 15 3 11
16 -9 11 50 -5 65 -10 10 -12 10 -7 1 10 -18 -2 -16 -20 2 -11 11 -12 15 -3
15 7 0 9 3 6 6 -4 4 -14 1 -24 -7 -15 -12 -16 -12 -11 2 5 13 2 16 -13 12 -11
-3 -19 0 -19 7 0 7 -6 6 -16 -4 -21 -22 -40 -21 -23 2 7 9 2 7 -11 -5 -20 -19
-21 -24 -10 -38 11 -13 10 -15 -3 -10 -8 4 -18 2 -22 -4 -3 -6 -12 -11 -18
-11 -7 0 -4 5 6 11 9 5 17 15 17 22 0 8 -3 7 -9 -2 -5 -8 -14 -10 -22 -6 -8 5
-11 5 -8 1 6 -7 -39 -60 -51 -61 -3 0 -12 -4 -20 -10 -13 -8 -13 -7 -1 8 7 9
18 14 24 10 7 -4 8 0 4 11 -4 10 -7 21 -7 24 0 4 -6 -4 -13 -18 -8 -14 -18
-24 -24 -23 -6 1 -21 -9 -33 -22 -24 -25 -47 -34 -34 -13 4 7 3 8 -5 4 -9 -6
-9 -11 -1 -21 8 -10 6 -17 -11 -29 -12 -8 -26 -13 -31 -10 -4 3 -8 0 -8 -7 0
-8 -4 -8 -15 1 -8 7 -26 10 -40 8 -13 -3 -22 -1 -19 4 3 4 -2 11 -10 14 -9 3
-13 10 -10 15 3 5 -2 9 -10 9 -9 0 -16 5 -16 11 0 5 5 7 12 3 7 -4 8 -3 4 5
-4 6 -11 9 -15 7 -4 -3 -19 -7 -34 -10 -19 -3 -24 -1 -20 10 3 9 -1 14 -12 14
-15 0 -16 2 -4 17 13 15 12 15 -10 4 -13 -7 -21 -8 -17 -3 3 6 2 13 -4 17 -5
3 -10 -2 -11 -12 0 -16 -1 -16 -8 2 -5 11 -17 28 -28 38 -16 14 -20 14 -20 2
0 -8 5 -11 10 -8 6 3 7 1 3 -5 -11 -18 -13 -15 -32 23 -9 20 -19 33 -22 30 -3
-3 0 -11 6 -17 7 -7 12 -16 12 -22 0 -5 -9 1 -20 14 -11 13 -20 20 -20 15 0
-4 -6 -2 -13 4 -8 6 -17 8 -21 4 -4 -4 -4 0 -1 8 5 13 0 16 -18 14 -13 -2 -30
2 -38 7 -11 8 -10 9 4 4 11 -3 17 0 17 10 0 11 -6 14 -22 9 -13 -3 -18 -3 -13
2 6 4 15 17 22 28 6 11 17 19 24 17 10 -2 9 0 -1 13 -16 19 -10 25 26 28 16 1
29 8 29 14 0 6 4 15 9 20 5 5 6 3 2 -4 -4 -7 -2 -13 3 -13 6 0 11 7 11 16 0 8
5 12 10 9 6 -4 8 -11 5 -16 -4 -5 -1 -9 5 -9 7 0 9 8 4 22 -6 20 -5 21 10 9
14 -12 16 -12 10 4 -5 12 -4 16 4 11 6 -3 13 -2 17 4 4 6 11 8 16 5 5 -4 9 -1
9 4 0 6 4 11 10 11 5 0 7 -8 4 -17 -5 -15 -4 -15 4 -3 8 10 8 18 0 27 -15 19
-2 16 18 -4 16 -16 16 -16 10 3 -9 30 34 49 60 26 17 -16 17 -16 5 1 -16 21
-7 35 12 19 10 -8 13 -6 14 9 1 11 -2 17 -7 14 -6 -4 -7 2 -3 11 4 11 8 13 11
6 2 -7 13 -12 23 -12 11 0 17 5 14 10 -4 6 -12 7 -18 4 -7 -4 -9 -3 -4 1 10
12 47 14 47 3 0 -4 4 -8 10 -8 5 0 9 3 7 8 -1 4 3 7 8 7 5 0 9 -3 8 -7 -2 -5
1 -8 6 -8 5 0 11 5 13 11 2 7 15 4 35 -7 28 -16 29 -20 15 -31 -15 -10 -15
-12 6 -10 12 1 22 6 22 11 0 5 3 6 6 3 4 -4 1 -13 -6 -22 -12 -15 0 -22 14 -8
10 11 37 12 30 2 -3 -5 0 -9 6 -9 7 0 9 -7 6 -16 -3 -8 -2 -12 4 -9 6 3 10 0
10 -7 1 -8 7 -5 16 7 16 20 16 20 10 -2 -4 -12 -2 -24 5 -29 7 -4 9 -3 5 4 -4
6 1 10 13 9 19 -1 19 -2 3 -21 -9 -11 -12 -17 -6 -13 6 3 23 0 38 -8 14 -8 24
-10 21 -5 -4 6 1 10 9 10 8 0 18 -5 21 -11 4 -6 13 -8 21 -5 9 3 11 0 7 -12
-6 -15 -5 -16 12 -2 17 14 18 13 12 -3 -4 -11 -3 -16 3 -12 6 3 10 15 10 25 0
26 19 35 27 13 6 -16 8 -15 13 5 3 13 10 22 15 20 6 -2 9 -7 7 -11 -1 -5 3 -5
9 -2 8 5 8 10 0 18 -15 15 -14 30 1 21 6 -4 8 -3 4 4 -3 5 -1 12 6 14 7 3 5 7
-6 11 -9 4 -15 3 -12 -1 3 -5 -1 -9 -9 -9 -8 0 -15 4 -15 8 0 10 30 20 43 13
7 -3 3 2 -8 11 -11 9 -19 21 -17 26 1 6 -2 8 -8 4 -8 -5 -7 -12 2 -22 12 -15
11 -15 -9 -2 -14 8 -18 16 -11 20 8 5 5 13 -7 26 -17 16 -18 16 -12 1 3 -10 2
-18 -3 -18 -6 0 -10 6 -10 14 0 7 -8 20 -17 27 -11 10 -14 10 -9 2 12 -21 -5
-15 -26 9 -10 12 -16 29 -13 37 4 10 -1 9 -16 -5 -12 -10 -20 -14 -17 -9 3 6
-1 17 -10 25 -14 13 -15 12 -9 -2 4 -12 2 -15 -8 -11 -8 3 -12 9 -9 14 3 5 -3
6 -13 2 -16 -6 -17 -5 -3 12 14 17 13 18 -2 12 -9 -3 -22 0 -28 8 -9 11 -6 13
14 11 17 -2 23 1 19 8 -9 14 -13 40 -5 32 3 -3 17 4 31 16 14 13 19 15 12 6
-16 -21 -4 -23 21 -4 10 7 15 16 11 19 -3 4 -1 7 5 7 7 0 12 -4 12 -10 0 -5 5
-10 11 -10 6 0 9 9 6 19 -4 15 0 18 24 17 15 -1 26 1 23 6 -5 8 38 49 53 51 4
0 14 7 21 14 8 7 18 10 24 7 7 -4 8 -2 4 5 -4 6 -12 8 -18 5 -7 -4 -8 -2 -4 4
4 7 2 12 -5 12 -7 0 -9 3 -6 6 4 4 19 -1 34 -11 l28 -18 -18 20 c-12 14 -15
23 -8 28 14 8 -32 78 -54 81 -8 1 -13 -2 -9 -7 4 -7 -43 6 -53 14 -1 1 -9 -7
-18 -18 -16 -20 -16 -19 -11 5 3 14 3 19 0 12 -3 -6 -9 -10 -14 -7 -4 3 -6 -3
-3 -14 5 -19 -13 -38 -25 -26 -3 3 0 10 8 15 8 6 10 10 5 10 -15 0 -44 -37
-37 -46 4 -5 -1 -2 -10 5 -14 11 -21 10 -38 -2 -12 -8 -17 -18 -12 -21 6 -3
12 1 16 9 3 8 10 15 16 15 6 0 4 -7 -4 -16 -9 -8 -16 -21 -16 -27 0 -9 -2 -9
-8 0 -4 7 -21 10 -37 8 -17 -2 -33 -4 -37 -4 -5 -1 -8 -9 -8 -18 0 -15 2 -14
15 3 8 11 14 14 15 6 0 -10 5 -10 23 -1 17 9 19 9 11 0 -6 -7 -20 -14 -30 -16
-11 -2 -20 -4 -21 -5 -3 -2 -37 -3 -54 -1 -5 1 -7 6 -4 11 3 6 2 10 -4 10 -5
0 -11 -5 -13 -12 -3 -8 -7 -6 -11 5 -3 9 -3 16 1 16 20 -3 32 2 27 11 -4 6
-12 7 -18 4 -9 -5 -9 -3 0 6 10 11 15 11 29 -1 16 -13 16 -12 4 8 -8 12 -18
19 -23 16 -4 -3 -7 10 -4 28 2 23 -2 39 -12 47 -14 12 -14 13 1 8 17 -5 18 2
5 69 -2 11 1 24 7 28 6 5 2 7 -12 4 -12 -3 -20 -2 -18 2 3 4 -9 16 -25 26 -16
11 -29 24 -29 28 0 5 14 -3 31 -17 17 -14 36 -26 42 -25 9 0 9 2 0 5 -7 3 -11
11 -9 17 1 7 1 9 -1 5 -3 -4 -15 0 -29 8 -13 9 -21 20 -18 25 3 5 0 9 -5 9 -6
0 -11 -5 -11 -11 0 -8 -4 -8 -14 0 -10 8 -16 9 -21 1 -6 -9 1 -14 18 -11 4 0
7 -3 7 -9 0 -14 -23 -13 -38 2 -13 13 -16 4 -13 -37 2 -17 0 -17 -8 -5 -9 12
-11 11 -11 -7 0 -12 6 -24 13 -26 9 -4 9 -6 -1 -6 -7 -1 -11 -5 -7 -10 3 -6
-6 -8 -20 -5 -23 4 -24 3 -13 -10 7 -7 16 -12 19 -10 9 5 21 -27 14 -34 -3 -3
-5 1 -5 9 0 11 -2 11 -10 -1 -8 -12 -10 -12 -10 -1 0 8 -2 12 -5 9 -9 -8 6
-38 16 -32 5 3 9 1 9 -4 0 -17 -13 -22 -29 -10 -13 10 -14 10 -3 -2 6 -8 12
-18 12 -23 0 -4 -6 -5 -12 -1 -9 5 -9 2 1 -9 7 -9 21 -17 30 -17 13 0 14 -2 2
-9 -8 -5 -21 -7 -30 -4 -14 4 -14 3 -1 -7 11 -9 12 -13 2 -17 -6 -2 -9 -9 -6
-15 4 -6 13 -1 21 13 13 24 14 23 8 -8 -5 -23 -2 -34 10 -41 16 -8 16 -9 1
-15 -10 -4 -15 -3 -11 3 3 6 1 10 -5 10 -7 0 -9 -7 -6 -16 3 -9 6 -18 6 -20 0
-3 5 -2 11 1 6 4 5 -2 -2 -13 -11 -17 -16 -19 -29 -9 -13 11 -13 10 -1 -6 8
-10 20 -16 27 -13 8 3 11 0 7 -9 -4 -12 -10 -12 -26 -4 -18 10 -20 9 -9 -2 16
-17 16 -32 -1 -26 -10 4 -12 -3 -9 -25 3 -20 1 -29 -6 -24 -6 3 -13 2 -17 -4
-4 -6 -10 -8 -15 -5 -5 3 -11 1 -15 -5 -8 -13 -25 -13 -25 1 0 5 4 8 8 5 5 -3
9 2 9 11 0 13 -4 12 -17 -5 -10 -12 -19 -20 -21 -19 -3 1 2 -3 9 -9 10 -9 10
-13 -2 -17 -9 -4 -18 -2 -21 3 -4 6 -12 10 -18 10 -8 0 -8 -3 -2 -8 16 -12 16
-32 0 -26 -8 4 -15 11 -15 17 0 6 -3 7 -6 4 -4 -4 -1 -14 7 -24 8 -9 9 -14 2
-10 -6 4 -14 3 -18 -2 -7 -12 -67 -43 -72 -37 -2 2 13 11 32 21 20 9 34 19 31
22 -3 3 -20 -4 -38 -15 -18 -11 -37 -20 -41 -20 -5 0 -12 -4 -15 -8 -4 -4 -1
-4 6 0 7 4 12 1 12 -9 0 -13 -4 -14 -21 -4 -17 8 -23 8 -30 -2 -4 -7 -5 -17
-3 -21 3 -4 0 -8 -5 -8 -6 0 -11 5 -11 11 0 5 -5 7 -11 4 -6 -5 -4 -12 8 -21
10 -7 14 -14 8 -15 -5 0 -21 -3 -35 -5 -14 -2 -33 -5 -43 -5 -11 0 -15 -5 -10
-12 5 -9 2 -8 -9 0 -8 7 -17 11 -20 8 -2 -3 -5 2 -5 10 0 8 3 13 6 11 3 -2 14
4 23 13 16 16 16 17 -2 17 -10 0 -16 -4 -14 -8 3 -4 1 -8 -4 -8 -6 0 -13 7
-16 16 -4 9 -2 13 5 8 8 -4 9 1 4 16 -4 13 -3 20 2 17 5 -3 15 -2 22 2 10 6 9
10 -4 14 -9 4 -14 3 -11 -1 2 -4 -5 -8 -16 -8 -20 0 -20 0 1 14 11 8 21 19 21
24 0 6 -8 4 -17 -3 -16 -12 -17 -12 -6 2 7 9 9 20 5 24 -4 5 -1 5 6 1 6 -4 12
-2 12 3 0 6 -4 11 -10 11 -5 0 -10 4 -10 10 0 5 5 9 12 7 7 -1 12 3 13 8 0 6
4 17 10 25 8 13 7 13 -8 1 -9 -7 -14 -18 -10 -24 3 -6 1 -7 -5 -3 -6 3 -10 15
-9 26 1 10 5 16 9 14 4 -3 8 0 8 5 0 6 -4 11 -10 11 -5 0 -10 4 -10 10 0 5 5
9 12 7 8 -1 12 11 11 33 -1 52 -1 52 -25 40 l-23 -11 23 17 c21 16 31 44 14
44 -4 0 -13 9 -20 21 -8 12 -9 18 -4 15 6 -3 12 -3 15 1 2 5 2 3 1 -4 -2 -6 4
-14 11 -17 11 -4 12 0 5 18 -6 16 -5 28 3 37 10 11 9 11 -3 2 -13 -10 -18 -8
-28 8 -7 11 -8 19 -2 19 5 0 10 -5 10 -11 0 -5 4 -8 10 -4 5 3 8 11 6 18 -1 7
-1 9 1 5 8 -14 25 -8 20 6 -7 18 28 50 44 40 8 -5 11 -2 7 7 -3 8 0 20 8 26
10 10 14 8 19 -8 7 -21 7 -21 30 2 12 13 21 27 18 31 -2 4 6 5 18 3 14 -3 19
0 16 8 -3 8 4 14 15 14 14 1 18 -3 14 -13 -4 -9 -2 -12 5 -8 6 3 9 15 6 25 -6
21 17 46 27 30 8 -13 45 -10 43 4 -1 5 3 9 9 8 6 -1 11 5 11 13 0 11 -6 9 -22
-6 -17 -16 -22 -17 -22 -6 0 8 4 13 8 11 3 -3 12 2 19 10 8 10 17 12 24 6 7
-6 17 -1 28 14 15 20 16 24 2 35 -13 11 -13 15 0 29 13 14 13 19 -1 36 -11 14
-14 15 -10 3 6 -17 -16 -20 -30 -3 -4 4 -2 5 4 1 9 -5 12 0 11 17 -1 16 -7 23
-16 19 -10 -3 -11 -7 -2 -12 6 -4 -2 -7 -18 -6 -17 1 -28 4 -25 9 2 4 -1 7 -7
7 -6 0 -8 5 -4 12 4 7 3 8 -5 4 -6 -4 -9 -12 -6 -17 5 -8 -3 -11 -25 -11 -3 0
-16 3 -30 7 -14 3 -20 3 -15 -2 21 -17 13 -39 -14 -37 -19 1 -31 -7 -44 -30
-15 -27 -17 -28 -12 -6 4 16 3 20 -3 12 -5 -7 -17 -10 -28 -6 -18 6 -18 6 1
-9 16 -13 9 -24 -10 -14 -2 1 -11 -7 -20 -18 l-15 -20 6 20 c6 16 5 18 -7 8
-16 -15 -39 -17 -39 -3 0 5 7 6 17 3 10 -4 14 -2 9 5 -4 7 1 10 14 7 11 -2 20
1 20 6 0 5 -8 9 -17 7 -14 -2 -18 4 -18 32 0 22 -5 34 -13 33 -6 -2 -13 2 -13
7 -3 20 -4 25 -14 40 -8 13 -7 13 8 1 9 -7 14 -18 10 -25 -3 -6 -3 -8 2 -4 4
4 15 2 23 -5 9 -6 5 2 -7 20 -13 17 -21 39 -18 47 4 9 -1 19 -9 24 -13 7 -10
11 15 22 17 7 31 17 31 22 0 5 -4 7 -8 4 -13 -8 -35 11 -27 24 6 9 9 9 16 -1
6 -10 9 -10 9 -2 0 6 -5 15 -10 18 -6 4 -7 11 -4 17 4 7 2 8 -5 4 -11 -7 -33
32 -25 45 1 3 -31 6 -72 7 -66 1 -73 -1 -59 -14z m155 -59 c0 -12 -19 -12 -23
0 -4 9 -1 12 9 8 7 -3 14 -7 14 -8z m6 -230 c-1 -37 -10 -46 -20 -20 -3 8 -1
15 4 15 6 0 10 4 10 10 0 5 -8 7 -17 3 -15 -5 -14 -3 2 10 11 9 20 17 21 17 0
0 0 -16 0 -35z m-158 -1 c1 -1 -5 -4 -15 -6 -13 -4 -19 0 -19 13 0 14 3 16 16
6 8 -6 16 -12 18 -13z m306 -8 c-10 -8 -21 -12 -24 -10 -5 6 21 24 34 24 6 0
1 -6 -10 -14z m195 -62 c-15 -18 -22 -13 -13 10 3 9 10 13 16 10 5 -3 4 -12
-3 -20z m171 -64 c8 -5 11 -10 5 -10 -5 0 -17 5 -25 10 -8 5 -10 10 -5 10 6 0
17 -5 25 -10z m-1165 -81 c-4 -5 -12 -9 -18 -8 -9 0 -8 2 1 6 6 2 9 10 6 15
-4 7 -2 8 5 4 6 -4 9 -12 6 -17z m775 1 c0 -5 -5 -10 -11 -10 -5 0 -7 5 -4 10
3 6 8 10 11 10 2 0 4 -4 4 -10z m-383 -32 c-3 -8 -6 -5 -6 6 -1 11 2 17 5 13
3 -3 4 -12 1 -19z m743 -64 c0 -2 -9 -8 -20 -14 -15 -8 -18 -8 -14 3 4 11 34
21 34 11z m541 -60 c0 -4 -8 -9 -17 -10 -12 -2 -13 1 -6 8 11 11 5 41 -7 34
-4 -3 -8 5 -8 17 -2 18 1 17 18 -10 11 -18 20 -35 20 -39z m-108 41 c-3 -9 -8
-14 -10 -11 -3 3 -2 9 2 15 9 16 15 13 8 -4z m-1730 -40 c-3 -9 -8 -14 -10
-11 -3 3 -2 9 2 15 9 16 15 13 8 -4z m802 -55 c-3 -5 -12 -10 -18 -10 -7 0 -6
4 3 10 19 12 23 12 15 0z m-830 -10 c3 -5 1 -10 -4 -10 -6 0 -11 5 -11 10 0 6
2 10 4 10 3 0 8 -4 11 -10z m841 -73 c3 -23 -3 -21 -17 4 -8 17 -8 20 2 17 7
-2 13 -12 15 -21z m-1030 -182 c-9 -9 -16 -13 -16 -8 0 12 22 34 28 28 2 -2
-3 -11 -12 -20z m559 15 c-3 -5 -12 -10 -18 -10 -7 0 -6 4 3 10 19 12 23 12
15 0z m1250 0 c3 -5 1 -10 -4 -10 -6 0 -11 5 -11 10 0 6 2 10 4 10 3 0 8 -4
11 -10z m-635 -76 c0 -8 -5 -12 -10 -9 -6 4 -8 11 -5 16 9 14 15 11 15 -7z
m-346 -46 c-5 -8 -1 -9 12 -4 14 5 16 4 8 -4 -6 -6 -19 -8 -28 -4 -14 5 -15 9
-4 15 18 12 20 11 12 -3z m1025 -81 c0 -9 -2 -9 -5 0 -3 7 -13 9 -22 6 -14 -4
-14 -3 -2 5 16 12 30 7 29 -11z m-1869 -13 c0 -8 -19 -13 -24 -6 -3 5 1 9 9 9
8 0 15 -2 15 -3z m735 -44 c3 -6 -1 -7 -9 -4 -18 7 -21 14 -7 14 6 0 13 -4 16
-10z m445 -20 c0 -5 -2 -10 -4 -10 -3 0 -8 5 -11 10 -3 6 -1 10 4 10 6 0 11
-4 11 -10z m-457 -53 c3 -8 1 -20 -5 -28 -8 -11 -9 -10 -4 4 3 9 1 17 -5 17
-6 0 -7 5 -4 10 8 13 12 13 18 -3z m-785 -72 c-3 -3 -9 2 -12 12 -6 14 -5 15
5 6 7 -7 10 -15 7 -18z m2099 -44 c0 -11 -7 -17 -14 -14 -9 4 -9 8 0 19 16 17
16 17 14 -5z m-304 -54 c3 -8 -3 -14 -15 -14 -16 -2 -17 1 -8 13 15 17 17 17
23 1z m-551 -41 c7 4 8 2 4 -5 -9 -13 -26 -5 -25 12 0 9 2 8 6 -1 2 -6 10 -9
15 -6z m811 -12 c-4 -12 -8 -13 -14 -3 -9 15 -2 32 11 24 5 -3 6 -13 3 -21z
m-1738 6 c-3 -5 -12 -10 -18 -10 -7 0 -6 4 3 10 19 12 23 12 15 0z m780 0 c-3
-5 -12 -10 -18 -10 -7 0 -6 4 3 10 19 12 23 12 15 0z m5 -24 c0 -2 -7 -7 -16
-10 -8 -3 -12 -2 -9 4 6 10 25 14 25 6z m855 -37 c-4 -5 -12 -9 -18 -8 -9 0
-8 2 1 6 6 2 9 10 6 15 -4 7 -2 8 5 4 6 -4 9 -12 6 -17z m-1868 -4 c0 -8 -4
-12 -9 -9 -4 3 -8 9 -8 15 0 5 4 9 8 9 5 0 9 -7 9 -15z m1020 -20 c0 -8 -4
-12 -9 -9 -4 3 -8 9 -8 15 0 5 4 9 8 9 5 0 9 -7 9 -15z m-517 -27 c0 -4 -4 -8
-9 -8 -6 0 -12 4 -15 8 -3 5 1 9 9 9 8 0 15 -4 15 -9z m1315 -58 c3 -5 1 -10
-4 -10 -6 0 -11 5 -11 10 0 6 2 10 4 10 3 0 8 -4 11 -10z m-814 -68 c-6 -2 -8
-9 -5 -14 4 -7 2 -8 -4 -4 -9 5 -8 12 1 27 7 12 13 15 16 7 2 -7 -1 -14 -8
-16z m670 -82 c6 0 7 5 3 12 -4 7 -3 8 5 4 6 -4 9 -12 6 -17 -4 -5 -1 -9 4 -9
6 0 11 5 11 11 0 8 4 9 13 0 8 -6 16 -9 19 -6 2 3 5 -2 5 -10 0 -11 -4 -12
-14 -4 -9 9 -17 8 -28 -1 -11 -9 -15 -9 -15 -1 0 7 -6 11 -13 9 -13 -3 -18 3
-16 25 0 10 2 10 6 0 2 -7 9 -13 14 -13z m-656 -88 c-3 -3 -11 0 -18 7 -9 10
-8 11 6 5 10 -3 15 -9 12 -12z m825 -2 c0 -5 -2 -10 -4 -10 -3 0 -8 5 -11 10
-3 6 -1 10 4 10 6 0 11 -4 11 -10z m40 6 c0 -2 -7 -7 -16 -10 -8 -3 -12 -2 -9
4 6 10 25 14 25 6z m-1506 -31 c-4 -8 -8 -15 -10 -15 -2 0 -4 7 -4 15 0 8 4
15 10 15 5 0 7 -7 4 -15z m1106 0 c0 -8 -4 -15 -10 -15 -5 0 -7 7 -4 15 4 8 8
15 10 15 2 0 4 -7 4 -15z m430 5 c0 -5 -2 -10 -4 -10 -3 0 -8 5 -11 10 -3 6
-1 10 4 10 6 0 11 -4 11 -10z m-2013 -22 c-3 -8 -6 -5 -6 6 -1 11 2 17 5 13 3
-3 4 -12 1 -19z m478 -18 c3 -5 1 -10 -4 -10 -6 0 -11 5 -11 10 0 6 2 10 4 10
3 0 8 -4 11 -10z m748 -65 c-3 -9 -8 -14 -10 -11 -3 3 -2 9 2 15 9 16 15 13 8
-4z m232 -145 c3 -6 -1 -7 -9 -4 -18 7 -21 14 -7 14 6 0 13 -4 16 -10z m-268
-19 c0 -11 -5 -18 -9 -15 -4 3 -5 11 -1 19 7 21 12 19 10 -4z m-565 -85 c7 4
8 2 4 -5 -9 -14 -36 3 -36 23 0 6 5 3 11 -7 6 -9 15 -14 21 -11z m443 -266 c3
-6 -1 -7 -9 -4 -18 7 -21 14 -7 14 6 0 13 -4 16 -10z"/>
<path d="M1204 2472 c3 -5 0 -13 -6 -15 -9 -4 -10 -6 -1 -6 17 -1 25 16 12 25
-7 4 -9 3 -5 -4z"/>
<path d="M1397 2438 c4 -7 6 -20 5 -29 -3 -20 23 -44 33 -29 4 6 1 9 -7 8 -7
-2 -14 6 -14 17 -1 11 -2 26 -3 33 -1 6 -6 12 -12 12 -6 0 -7 -5 -2 -12z"/>
<path d="M1610 2361 c0 -6 4 -13 10 -16 6 -3 7 1 4 9 -7 18 -14 21 -14 7z"/>
<path d="M848 2319 c6 -9 8 -20 4 -25 -4 -4 2 -2 13 6 30 21 32 24 14 17 -9
-3 -23 0 -30 6 -11 10 -11 9 -1 -4z"/>
<path d="M1056 2313 c-6 -14 -5 -15 5 -6 7 7 10 15 7 18 -3 3 -9 -2 -12 -12z"/>
<path d="M1635 2151 c-3 -5 -1 -12 5 -16 5 -3 10 1 10 9 0 18 -6 21 -15 7z"/>
<path d="M955 2141 c-3 -5 -2 -12 3 -15 5 -3 9 1 9 9 0 17 -3 19 -12 6z"/>
<path d="M771 2114 c0 -11 3 -14 6 -6 3 7 2 16 -1 19 -3 4 -6 -2 -5 -13z"/>
<path d="M1846 2115 c4 -8 11 -15 16 -15 6 0 5 6 -2 15 -7 8 -14 15 -16 15 -2
0 -1 -7 2 -15z"/>
<path d="M2035 2101 c-6 -11 13 -26 22 -17 4 3 1 6 -6 6 -7 0 -9 5 -6 10 3 6
4 10 1 10 -3 0 -7 -4 -11 -9z"/>
<path d="M1050 2091 c0 -5 7 -15 17 -22 15 -13 15 -12 4 9 -12 23 -21 28 -21
13z"/>
<path d="M765 2060 c-3 -5 -2 -10 4 -10 5 0 13 5 16 10 3 6 2 10 -4 10 -5 0
-13 -4 -16 -10z"/>
<path d="M2047 2056 c-4 -10 -1 -13 8 -9 8 3 12 9 9 14 -7 12 -11 11 -17 -5z"/>
<path d="M1441 2026 c-10 -11 -9 -14 1 -12 14 2 23 15 15 22 -2 2 -10 -2 -16
-10z"/>
<path d="M2049 2028 c-6 -22 -5 -38 3 -38 6 0 8 6 5 14 -3 8 -1 17 6 20 9 3 9
5 0 5 -7 1 -13 0 -14 -1z"/>
<path d="M2343 2014 c0 -6 9 -9 19 -6 27 7 29 17 4 17 -13 0 -23 -5 -23 -11z"/>
<path d="M215 2000 c-3 -5 -1 -10 4 -10 6 0 11 5 11 10 0 6 -2 10 -4 10 -3 0
-8 -4 -11 -10z"/>
<path d="M2455 1940 c3 -5 8 -10 11 -10 2 0 4 5 4 10 0 6 -5 10 -11 10 -5 0
-7 -4 -4 -10z"/>
<path d="M1210 1929 c0 -5 -5 -7 -12 -3 -7 4 -8 3 -4 -5 6 -9 11 -9 22 0 17
14 18 19 4 19 -5 0 -10 -5 -10 -11z"/>
<path d="M446 1921 c-4 -5 -2 -12 3 -15 5 -4 12 -2 15 3 4 5 2 12 -3 15 -5 4
-12 2 -15 -3z"/>
<path d="M175 1889 c-4 -6 -5 -12 -2 -15 2 -3 7 2 10 11 7 17 1 20 -8 4z"/>
<path d="M2056 1885 c4 -8 8 -15 10 -15 2 0 4 7 4 15 0 8 -4 15 -10 15 -5 0
-7 -7 -4 -15z"/>
<path d="M765 1881 c-3 -5 -2 -12 3 -15 5 -3 9 1 9 9 0 17 -3 19 -12 6z"/>
<path d="M1830 1836 c0 -2 8 -10 18 -17 15 -13 16 -12 3 4 -13 16 -21 21 -21
13z"/>
<path d="M2366 1821 c-9 -10 -16 -21 -16 -26 0 -4 8 1 18 13 14 16 22 18 30
10 8 -8 12 -9 12 -1 0 20 -28 22 -44 4z"/>
<path d="M760 1801 c0 -6 4 -13 10 -16 6 -3 7 1 4 9 -7 18 -14 21 -14 7z"/>
<path d="M1801 1713 c-7 -8 -11 -16 -8 -19 2 -2 10 2 17 11 17 20 9 27 -9 8z"/>
<path d="M2191 1717 c-8 -10 -7 -14 2 -14 8 0 14 6 14 14 0 7 -1 13 -2 13 -2
0 -8 -6 -14 -13z"/>
<path d="M418 1678 c8 -10 10 -23 6 -30 -6 -9 -3 -9 9 1 10 8 16 14 15 15 -2
1 -12 8 -23 16 -18 14 -19 14 -7 -2z"/>
<path d="M913 1655 c0 -8 4 -12 9 -9 5 3 6 10 3 15 -9 13 -12 11 -12 -6z"/>
<path d="M1006 1593 c-6 -14 -5 -15 5 -6 7 7 10 15 7 18 -3 3 -9 -2 -12 -12z"/>
<path d="M1195 1590 c3 -5 8 -10 11 -10 2 0 4 5 4 10 0 6 -5 10 -11 10 -5 0
-7 -4 -4 -10z"/>
<path d="M1994 1542 c2 -9 6 -16 10 -15 23 6 24 9 7 20 -16 10 -19 9 -17 -5z"/>
<path d="M562 1517 c-17 -18 -19 -24 -8 -24 8 0 12 5 9 10 -4 6 0 8 8 5 10 -4
15 1 15 13 0 23 2 24 -24 -4z"/>
<path d="M1107 1529 c7 -7 15 -10 18 -7 3 3 -2 9 -12 12 -14 6 -15 5 -6 -5z"/>
<path d="M1446 1513 c-6 -14 -5 -15 5 -6 7 7 10 15 7 18 -3 3 -9 -2 -12 -12z"/>
<path d="M1800 1490 c-12 -7 -12 -11 -2 -20 6 -5 10 -7 7 -4 -3 4 0 13 6 21
13 15 10 16 -11 3z"/>
<path d="M810 1480 c0 -5 5 -10 11 -10 5 0 7 5 4 10 -3 6 -8 10 -11 10 -2 0
-4 -4 -4 -10z"/>
<path d="M840 1460 c-9 -6 -10 -10 -3 -10 6 0 15 5 18 10 8 12 4 12 -15 0z"/>
<path d="M1706 1431 c-4 -5 -2 -12 3 -15 5 -4 12 -2 15 3 4 5 2 12 -3 15 -5 4
-12 2 -15 -3z"/>
<path d="M2256 1385 c4 -8 11 -15 16 -15 6 0 5 6 -2 15 -7 8 -14 15 -16 15 -2
0 -1 -7 2 -15z"/>
<path d="M1572 1361 c-11 -7 -11 -9 0 -14 9 -3 15 1 15 9 0 8 -1 14 -1 14 -1
0 -7 -4 -14 -9z"/>
<path d="M1067 1329 c7 -7 15 -10 18 -7 3 3 -2 9 -12 12 -14 6 -15 5 -6 -5z"/>
<path d="M1606 1238 c3 -5 10 -6 15 -3 13 9 11 12 -6 12 -8 0 -12 -4 -9 -9z"/>
<path d="M236 1221 c-3 -5 1 -11 9 -14 9 -4 12 -1 8 9 -6 16 -10 17 -17 5z"/>
<path d="M198 1193 c7 -3 16 -2 19 1 4 3 -2 6 -13 5 -11 0 -14 -3 -6 -6z"/>
<path d="M204 1125 c8 -8 18 -15 22 -15 3 0 1 7 -6 15 -7 8 -17 15 -22 15 -5
0 -3 -7 6 -15z"/>
<path d="M1186 1112 c-2 -4 -1 -14 5 -22 5 -8 9 -10 9 -5 0 6 5 3 10 -5 7 -10
10 -11 10 -2 0 7 -7 15 -15 18 -8 4 -12 10 -9 15 3 5 3 9 0 9 -3 0 -7 -4 -10
-8z"/>
<path d="M1105 1091 c-3 -5 0 -13 6 -17 8 -5 9 -3 4 6 -6 10 -4 12 9 7 10 -4
15 -3 11 3 -8 13 -22 13 -30 1z"/>
<path d="M236 1082 c-3 -5 1 -9 9 -9 8 0 12 4 9 9 -3 4 -7 8 -9 8 -2 0 -6 -4
-9 -8z"/>
<path d="M1890 1081 c0 -6 4 -13 10 -16 6 -3 7 1 4 9 -7 18 -14 21 -14 7z"/>
<path d="M2000 1069 c0 -5 5 -7 10 -4 6 3 10 8 10 11 0 2 -4 4 -10 4 -5 0 -10
-5 -10 -11z"/>
<path d="M1950 1060 c0 -5 5 -10 10 -10 6 0 10 5 10 10 0 6 -4 10 -10 10 -5 0
-10 -4 -10 -10z"/>
<path d="M2315 1040 c-3 -5 -1 -10 4 -10 6 0 11 5 11 10 0 6 -2 10 -4 10 -3 0
-8 -4 -11 -10z"/>
<path d="M2230 879 c0 -5 5 -7 10 -4 6 3 10 8 10 11 0 2 -4 4 -10 4 -5 0 -10
-5 -10 -11z"/>
<path d="M1207 855 c-4 -8 -1 -17 6 -21 7 -4 9 -4 5 1 -4 4 -3 14 3 22 7 8 8
13 1 13 -5 0 -12 -7 -15 -15z"/>
<path d="M1837 845 c3 -8 9 -12 14 -9 12 7 11 11 -5 17 -10 4 -13 1 -9 -8z"/>
<path d="M756 832 c-2 -4 -1 -14 4 -22 7 -11 9 -9 7 8 -1 24 -3 26 -11 14z"/>
<path d="M195 769 c-4 -6 -5 -12 -2 -15 2 -3 7 2 10 11 7 17 1 20 -8 4z"/>
<path d="M550 740 c0 -5 5 -10 11 -10 5 0 7 -5 3 -12 -4 -7 -3 -8 5 -4 9 6 9
11 0 22 -14 17 -19 18 -19 4z"/>
<path d="M1206 724 c-5 -14 -4 -15 9 -4 17 14 19 20 6 20 -5 0 -12 -7 -15 -16z"/>
<path d="M1830 726 c0 -2 8 -10 18 -17 15 -13 16 -12 3 4 -13 16 -21 21 -21
13z"/>
<path d="M1405 700 c-3 -5 -2 -10 4 -10 5 0 13 5 16 10 3 6 2 10 -4 10 -5 0
-13 -4 -16 -10z"/>
<path d="M2147 699 c7 -7 15 -10 18 -7 3 3 -2 9 -12 12 -14 6 -15 5 -6 -5z"/>
<path d="M560 685 c5 -7 6 -16 2 -21 -4 -5 -3 -5 2 -1 15 12 15 34 0 34 -9 0
-11 -4 -4 -12z"/>
<path d="M1210 689 c0 -5 5 -7 10 -4 6 3 10 8 10 11 0 2 -4 4 -10 4 -5 0 -10
-5 -10 -11z"/>
<path d="M2452 680 c0 -14 2 -19 5 -12 2 6 2 18 0 25 -3 6 -5 1 -5 -13z"/>
<path d="M2040 600 c-8 -15 -8 -18 3 -14 8 3 14 11 14 19 0 20 -4 19 -17 -5z"/>
<path d="M1114 566 c-3 -8 -13 -13 -22 -11 -9 1 -11 0 -4 -2 7 -3 9 -9 6 -15
-4 -7 -2 -8 4 -4 14 8 36 46 27 46 -3 0 -8 -6 -11 -14z"/>
<path d="M1477 569 c7 -7 15 -10 18 -7 3 3 -2 9 -12 12 -14 6 -15 5 -6 -5z"/>
<path d="M765 561 c-3 -5 0 -13 6 -17 7 -4 9 -3 5 4 -3 5 0 13 6 15 9 4 10 6
1 6 -6 1 -14 -3 -18 -8z"/>
<path d="M2030 562 c0 -5 7 -9 15 -9 8 0 15 4 15 9 0 4 -7 8 -15 8 -8 0 -15
-4 -15 -8z"/>
<path d="M759 526 c0 -1 -2 -9 -4 -18 -4 -23 7 -23 22 0 9 15 8 19 -3 19 -8 0
-14 -1 -15 -1z"/>
<path d="M1850 520 c-13 -8 -12 -10 3 -10 9 0 17 5 17 10 0 12 -1 12 -20 0z"/>
<path d="M1860 491 c13 -10 13 -12 0 -22 -13 -9 -13 -10 0 -6 8 2 15 10 15 17
0 7 -7 15 -15 17 -13 4 -13 3 0 -6z"/>
<path d="M639 423 c-8 -9 -8 -13 0 -13 6 0 11 5 11 11 0 8 4 8 13 0 10 -8 14
-7 14 2 0 18 -24 17 -38 0z"/>
<path d="M830 363 c0 -6 5 -15 10 -18 8 -5 8 -11 1 -19 -8 -9 -7 -13 2 -13 7
0 13 14 13 31 1 17 -1 25 -4 17 -4 -11 -6 -11 -13 0 -6 9 -9 10 -9 2z"/>
<path d="M1150 360 c0 -5 5 -10 10 -10 6 0 10 5 10 10 0 6 -4 10 -10 10 -5 0
-10 -4 -10 -10z"/>
<path d="M1412 350 c-7 -11 -8 -20 -3 -20 9 0 24 30 18 36 -1 2 -8 -6 -15 -16z"/>
<path d="M1120 345 c-7 -8 -16 -13 -20 -10 -5 3 -12 0 -16 -6 -4 -7 -3 -9 4
-5 5 3 13 0 15 -6 4 -10 6 -10 6 0 1 7 6 10 13 6 7 -5 8 -3 3 6 -6 10 -4 12 8
7 11 -4 14 -2 10 9 -6 17 -8 17 -23 -1z"/>
<path d="M1189 341 c8 -5 10 -14 6 -22 -6 -11 -5 -11 5 -2 14 12 6 33 -13 33
-8 0 -7 -3 2 -9z"/>
<path d="M1570 300 c0 -5 5 -10 11 -10 5 0 7 5 4 10 -3 6 -8 10 -11 10 -2 0
-4 -4 -4 -10z"/>
<path d="M975 270 c-3 -5 -1 -10 4 -10 6 0 11 5 11 10 0 6 -2 10 -4 10 -3 0
-8 -4 -11 -10z"/>
<path d="M1420 180 c0 -5 -6 -7 -14 -4 -17 6 -31 -12 -16 -21 5 -3 10 -1 10 6
0 8 4 8 13 1 10 -8 13 -6 14 9 1 10 0 19 -3 19 -2 0 -4 -4 -4 -10z"/>
<path d="M1403 98 c-11 -19 -13 -39 -1 -32 5 3 7 9 4 12 -3 3 -1 11 5 19 6 7
9 13 6 13 -3 0 -9 -6 -14 -12z"/>
<path d="M1366 52 c-3 -4 4 -9 15 -9 23 -2 25 3 4 10 -8 4 -16 3 -19 -1z"/>
</g>
</svg>
